<?xml version="1.0" encoding="utf-8"?>
<!-- Generator: Adobe Illustrator 23.0.0, SVG Export Plug-In . SVG Version: 6.00 Build 0)  -->
<svg version="1.1" id="Layer_1" xmlns="http://www.w3.org/2000/svg" xmlns:xlink="http://www.w3.org/1999/xlink" x="0px" y="0px"
	 viewBox="0 0 121.28 30" style="enable-background:new 0 0 121.28 30;" xml:space="preserve">
<style type="text/css">
	.st0{fill:#506A85;}
</style>
<g>
	<g>
		<path class="st0" d="M25.44,9.98C25.44,4.41,21.67,0,15.01,0H0v6.75h13.84c2.02,0,3.73,1.17,3.73,3.19c0,2.11-1.71,3.24-3.73,3.24
			H0V30h7.73V19.93h3.96L16.72,30h8.85l-6.11-11.02C22.25,17.99,25.44,15.2,25.44,9.98z M56.19,30h21.98v-6.75H63.92v-5.08h13.93
			v-6.75H63.92V6.75h14.25V0H56.19V30z M29.78,30h21.98v-6.75H37.51v-5.08h13.93v-6.75H37.51V6.75h14.25V0H29.78V30z M102.68,16.51
			L90.55,0h-7.96v30h7.73V12.64L103,30h7.46V0h-7.78V16.51z M114.56,23.28V30h6.72v-6.72H114.56z"/>
	</g>
</g>
</svg>
